<svg width="84" height="84" viewBox="0 0 84 84" fill="none" xmlns="http://www.w3.org/2000/svg"><path d="M44.896 73.775c16.701 0 30.24-13.54 30.24-30.24 0-16.702-13.539-30.24-30.24-30.24s-30.24 13.538-30.24 30.24c0 16.7 13.539 30.24 30.24 30.24z" fill="#E5EFEF"/><path d="M77.95 56.897a1.407 1.407 0 1 0 0-2.813 1.407 1.407 0 0 0 0 2.813zM58.258 51.27a1.407 1.407 0 1 0 0-2.813 1.407 1.407 0 0 0 0 2.814zM11.843 54.084a1.406 1.406 0 1 0 0-2.813 1.406 1.406 0 0 0 0 2.813z" fill="#333"/><path d="m8.968 40.494.223.025c8.085.898 12.386-4.463 19.468-8.464l23.143-7.715a3.18 3.18 0 0 0-1.156-6.192l-26.207 1.248L8.968 40.494z" fill="#B5A19C" stroke="#333" stroke-width="2.813" stroke-linecap="round" stroke-linejoin="round"/><path d="M31.534 54.084c8.545 0 15.472-6.927 15.472-15.472S40.079 23.14 31.534 23.14s-15.472 6.927-15.472 15.472 6.927 15.472 15.472 15.472z" fill="#FFCE56" stroke="#333" stroke-width="2.813" stroke-linecap="round" stroke-linejoin="round"/><path d="M31.534 48.458c5.438 0 9.846-4.408 9.846-9.846s-4.409-9.846-9.846-9.846c-5.438 0-9.846 4.408-9.846 9.846s4.408 9.846 9.846 9.846z" stroke="#FC8C29" stroke-width="2.813" stroke-linecap="round" stroke-linejoin="round"/><path d="M68.042 2s-6.393 6.208-7.956 6.945a15.79 15.79 0 0 1-6.707 1.494H29.956a13.824 13.824 0 0 0-10.425 4.747L3.003 34.174a4.09 4.09 0 0 0 .492 5.844 4.23 4.23 0 0 0 5.729-.531l15.393-16.528a13.207 13.207 0 0 1 9.664-4.207h7.646a3.657 3.657 0 0 1 0 7.314h-8.195a9.33 9.33 0 0 0-3.709.721C23.93 29.42 26.205 35.8 30.6 35.8h27.158a17.631 17.631 0 0 0 12.468-5.165l5.262-8.075 6.62-3.807" fill="#E7D1C4"/><path d="M68.042 2s-6.393 6.208-7.956 6.945c-2.099.985-4.389 1.495-6.707 1.494H29.956a13.823 13.823 0 0 0-10.425 4.747L3.003 34.174a4.09 4.09 0 0 0 .492 5.844 4.23 4.23 0 0 0 5.729-.531l15.393-16.528a13.207 13.207 0 0 1 9.664-4.207h7.646a3.657 3.657 0 0 1 0 7.314h-8.195a9.33 9.33 0 0 0-3.709.721C23.93 29.42 26.205 35.8 30.6 35.8h27.158a17.631 17.631 0 0 0 12.468-5.165l5.262-8.075 6.62-3.807" stroke="#333" stroke-width="2.813" stroke-linecap="round" stroke-linejoin="round"/><path d="M3.403 82.214 17.47 59.71h46.415l14.065 22.504" fill="#BF7E68"/><path d="M3.403 82.214 17.47 59.71h46.415l14.065 22.504" stroke="#333" stroke-width="2.813" stroke-linecap="round" stroke-linejoin="round"/><path d="M53.335 68.149H28.017a2.11 2.11 0 1 0 0 4.22h25.318a2.11 2.11 0 1 0 0-4.22z" fill="#6B4F5B" stroke="#333" stroke-width="2.813" stroke-linecap="round" stroke-linejoin="round"/><path d="M72.323 38.612v5.626M69.51 41.425h5.626M9.03 9.075V14.7M6.217 11.888h5.626" stroke="#333" stroke-width="2.813" stroke-linecap="round" stroke-linejoin="round"/></svg>